<?xml version="1.0" encoding="utf-8"?>
<!-- Generator: Adobe Illustrator 19.2.1, SVG Export Plug-In . SVG Version: 6.00 Build 0)  -->
<svg version="1.1"
	 id="svg2" xmlns:cc="http://creativecommons.org/ns#" xmlns:dc="http://purl.org/dc/elements/1.1/" xmlns:inkscape="http://www.inkscape.org/namespaces/inkscape" xmlns:rdf="http://www.w3.org/1999/02/22-rdf-syntax-ns#" xmlns:sodipodi="http://sodipodi.sourceforge.net/DTD/sodipodi-0.dtd" xmlns:svg="http://www.w3.org/2000/svg"
	 xmlns="http://www.w3.org/2000/svg" xmlns:xlink="http://www.w3.org/1999/xlink" x="0px" y="0px" viewBox="0 0 500 500"
	 style="enable-background:new 0 0 500 500;" xml:space="preserve">
<g id="layer1" transform="translate(0,-552.36218)">
	<path id="rect2990-1" d="M250,552.4L250,552.4c138.1,0,250,111.9,250,250l0,0c0,138.1-111.9,250-250,250l0,0
		c-138.1,0-250-111.9-250-250l0,0C0,664.3,111.9,552.4,250,552.4z"/>
	<g id="layer1-9" transform="translate(-549.00515,80.294372)">
	</g>
	<g id="layer1-6" transform="translate(-575.71429,39.999999)">
	</g>
	<g id="layer1-0" transform="translate(22.821431,485.03569)">
	</g>
	<path id="rect2989-7" style="fill:#FFFFFF;" d="M261.3,712.1c-17,0.1-27.9,0.1-43.2,0.1c-12.8,0-20,5.2-20.2,8.3
		c-0.2,2.8,6.3,5.1,10.3,7.4c3.8,2.4,7.3,9.9,7.3,15v44.5c0,4.2-1,7.2-4.4,9.9c-1.6,1.3-3.6,1.7-5.7,1.7c-1.7,0-4-0.3-5.6-2.4
		C183,774.7,182.9,772,159.3,728c-1.1-2.1-2.3-4.4-4.6-6.1c-2.3-1.7-5.8-2.8-11.4-2.8c-19,0-30.7,0.3-43.2,0.3
		c-11.8,0-10.7,7.2-9.1,10.6c14.2,29.5,28.6,57.8,45.1,86.4c19.4,33.5,37.1,53.7,66.9,68.2c6.9,3.4,19.4,6.8,33.8,6.8h30.6
		c3.9,0,10.5-3.1,10.5-7.3v-23c0-6.6,6.6-9,10.1-10.6c4.2-1.9,8.6,1.1,10.9,3.5c17.1,18.3,15.2,16.3,30.8,32.7
		c3.5,3.7,6.2,5.7,12.9,5.7c45,0,45,0.1,55.8,0c3,0,7.3-4.4,8.3-6.2c1.3-2.3,4.2-10.4-0.5-15.7c-15.8-17.9-31.9-34.3-47.4-50.5
		c-1.2-1.2-2.1-2.9-2.1-4.6c0-1.9,1-3.7,2.1-5.2c17.3-24,31.6-44.4,47.2-69.7c5.1-8.2,4.4-14,3.5-16.1c-1.1-2.3-4.4-5.5-8.2-5.6
		c-20.8-0.1-29.8-0.4-52-0.4c-6.6,0-12.5-0.5-16.1,7.5c-9.7,21.4-25.6,54-39.5,67.5c-2.5,2.5-6,4.4-8.9,4.4c-3,0-6.1-2-6.6-6.9
		c-0.3-23.3-0.1-43.1-0.2-65.9c0-7-3-8.8-5.2-10.3C269.7,712.7,265,712.1,261.3,712.1L261.3,712.1z"/>
</g>
</svg>
