<svg xmlns="http://www.w3.org/2000/svg" viewBox="0 0 96 96"><path d="M48.1 47.7c-.1 0-.1 0 0 0H48c-6 0-11.2-1.5-14.3 1.3-1.9 1.7-2.6 3.8-2.6 6 0 9.3 7.4 10.4 16.9 10.4h.1C57.6 65.4 65 64.3 65 55c0-2.2-.8-4.3-2.6-6-3.1-2.8-8.4-1.3-14.3-1.3zM40 60.4c-1.8 0-3.3-2-3.3-4.5s1.5-4.5 3.3-4.5 3.3 2 3.3 4.5-1.5 4.5-3.3 4.5zm16 0c-1.8 0-3.3-2-3.3-4.5s1.5-4.5 3.3-4.5c1.8 0 3.3 2 3.3 4.5s-1.5 4.5-3.3 4.5zM48 0C21.5 0 0 21.5 0 48s21.5 48 48 48 48-21.5 48-48S74.5 0 48 0zm4.4 67.7h-8.8c-3.8 0-18.9-.3-18.9-18.4 0-4.2 1.4-7.2 3.8-9.8-.4-.9-.4-6.2 1.6-11.2 0 0 4.6.5 11.5 5.3 1.5-.4 3.9-.6 6.4-.6 2.5 0 4.9.2 6.4.6 6.9-4.8 11.5-5.3 11.5-5.3 2 5 2 10.3 1.6 11.2 2.3 2.5 3.8 5.6 3.8 9.8-.1 18.1-15.1 18.4-18.9 18.4z" fill="#030104"/></svg>