<?xml version="1.0" encoding="UTF-8"?><!DOCTYPE svg PUBLIC "-//W3C//DTD SVG 1.1//EN" "http://www.w3.org/Graphics/SVG/1.1/DTD/svg11.dtd"><svg xmlns="http://www.w3.org/2000/svg" xmlns:xlink="http://www.w3.org/1999/xlink"><symbol id="svg-people" viewBox="0 0 350 350">
<g>
	<path d="M175,171.173c38.914,0,70.463-38.318,70.463-85.586C245.463,38.318,235.105,0,175,0s-70.465,38.318-70.465,85.587   C104.535,132.855,136.084,171.173,175,171.173z" fill="#4b5a6e"/>
	<path d="M41.909,301.853C41.897,298.971,41.885,301.041,41.909,301.853L41.909,301.853z" fill="#4b5a6e"/>
	<path d="M308.085,304.104C308.123,303.315,308.098,298.63,308.085,304.104L308.085,304.104z" fill="#4b5a6e"/>
	<path d="M307.935,298.397c-1.305-82.342-12.059-105.805-94.352-120.657c0,0-11.584,14.761-38.584,14.761   s-38.586-14.761-38.586-14.761c-81.395,14.69-92.803,37.805-94.303,117.982c-0.123,6.547-0.18,6.891-0.202,6.131   c0.005,1.424,0.011,4.058,0.011,8.651c0,0,19.592,39.496,133.08,39.496c113.486,0,133.08-39.496,133.08-39.496   c0-2.951,0.002-5.003,0.005-6.399C308.062,304.575,308.018,303.664,307.935,298.397z" fill="#4b5a6e"/>
</g>
<g>
</g>
<g>
</g>
<g>
</g>
<g>
</g>
<g>
</g>
<g>
</g>
<g>
</g>
<g>
</g>
<g>
</g>
<g>
</g>
<g>
</g>
<g>
</g>
<g>
</g>
<g>
</g>
<g>
</g>
</symbol><symbol id="svg-book" viewBox="0 0 464.585 464.585">
<g>
	<path d="M464.585,393.312L377.122,78.297L301.73,99.229l8.329,29.998h-83.857V87.446h-78.243v30.92h-42.373V50.207H0v364.17h90.586   h15h42.373h15h48.243h15h98.153V180.715l64.838,233.528L464.585,393.312z M162.959,102.446h48.243v37.147h-48.243V102.446z    M162.959,201.81h48.243v170.575h-48.243V201.81z M162.959,186.81v-8.608h48.243v8.608H162.959z M162.959,163.202v-8.609h48.243   v8.609H162.959z M90.586,370.189H15V94.199h75.586V370.189z M90.586,65.207v13.992H15V65.207H90.586z M15,399.378v-14.189h75.586   v14.189H15z M147.959,399.378h-42.373V133.366h42.373V399.378z M162.959,399.378v-11.993h48.243v11.993H162.959z M309.355,399.378   h-83.153V144.226h83.153V399.378z M399.634,395.778l-52.742-189.961l46.485-12.907l52.742,189.961L399.634,395.778z    M342.879,191.364l-4.133-14.884l46.485-12.907l4.133,14.884L342.879,191.364z M366.681,96.762l14.537,52.358l-46.485,12.907   l-14.537-52.358L366.681,96.762z" fill="#FFFFFF"/>
	<rect x="243.621" y="160.457" width="48.315" height="15" fill="#FFFFFF"/>
	<rect x="243.621" y="186.81" width="48.315" height="15" fill="#FFFFFF"/>
	<rect x="243.621" y="213.164" width="48.315" height="15" fill="#FFFFFF"/>
	<rect x="243.621" y="365.797" width="48.315" height="15" fill="#FFFFFF"/>
	<rect x="119.272" y="272.274" width="15" height="25.255" fill="#FFFFFF"/>
	<rect x="119.272" y="311.805" width="15" height="57.099" fill="#FFFFFF"/>
	<rect x="119.272" y="189.919" width="15" height="68.081" fill="#FFFFFF"/>
	<rect x="119.272" y="150.387" width="15" height="26.354" fill="#FFFFFF"/>
</g>
<g>
</g>
<g>
</g>
<g>
</g>
<g>
</g>
<g>
</g>
<g>
</g>
<g>
</g>
<g>
</g>
<g>
</g>
<g>
</g>
<g>
</g>
<g>
</g>
<g>
</g>
<g>
</g>
<g>
</g>
</symbol><symbol id="svg-interface" viewBox="0 0 363 363">
<path d="M277.73,94.123c0,10.997-8.006,17.685-13.852,22.593c-2.214,1.859-6.335,5.251-6.324,6.518  c0.04,4.97-3.956,8.939-8.927,8.939c-0.025,0-0.05,0-0.075,0c-4.936,0-8.958-3.847-8.998-8.792  c-0.079-9.747,7.034-15.584,12.75-20.383c4.485-3.766,7.426-6.416,7.426-8.841c0-4.909-3.994-8.903-8.903-8.903  c-4.911,0-8.906,3.994-8.906,8.903c0,4.971-4.029,9-9,9s-9-4.029-9-9c0-14.834,12.069-26.903,26.904-26.903  C265.661,67.253,277.73,79.288,277.73,94.123z M248.801,140.481c-4.971,0-8.801,4.029-8.801,9v0.069  c0,4.971,3.831,8.966,8.801,8.966s9-4.064,9-9.035S253.772,140.481,248.801,140.481z M67.392,203.174c-4.971,0-9,4.029-9,9  s4.029,9,9,9h0.75c4.971,0,9-4.029,9-9s-4.029-9-9-9H67.392z M98.671,203.174c-4.971,0-9,4.029-9,9s4.029,9,9,9h0.749  c4.971,0,9-4.029,9-9s-4.029-9-9-9H98.671z M363,59.425v101.301c0,23.985-19.232,43.448-43.217,43.448H203.066  c-2.282,0-4.161-0.013-5.733-0.046c-1.647-0.034-3.501-0.047-4.224,0.033c-0.753,0.5-2.599,2.191-4.378,3.83  c-0.705,0.649-1.503,1.363-2.364,2.149l-33.022,30.098c-2.634,2.403-6.531,3.025-9.793,1.587c-3.262-1.439-5.552-4.669-5.552-8.234  v-95.417H43.72c-14.062,0-25.72,11.523-25.72,25.583v101.301c0,14.061,11.659,25.116,25.72,25.116h130.374  c2.245,0,4.345,1.031,6.003,2.545L207,317.523v-85.539c0-4.971,4.029-9,9-9s9,4.029,9,9v105.938c0,3.565-2.04,6.747-5.303,8.186  c-1.167,0.515-2.339,0.718-3.566,0.718c-2.204,0-4.378-0.905-6.069-2.449l-39.457-36.204H43.72c-23.986,0-43.72-19.13-43.72-43.116  V163.757c0-23.985,19.734-43.583,43.72-43.583H138V59.425c0-23.986,19.885-43.251,43.871-43.251h137.913  C343.768,16.174,363,35.439,363,59.425z M345,59.425c0-14.061-11.157-25.251-25.217-25.251H181.871  C167.81,34.174,156,45.364,156,59.425v69.833v83.934l18.095-16.353c0.838-0.765,1.777-1.465,2.462-2.097  c8.263-7.614,10.377-8.831,21.155-8.609c1.47,0.031,3.221,0.042,5.354,0.042h116.717c14.06,0,25.217-11.388,25.217-25.448V59.425z" fill="#FFFFFF"/>
<g>
</g>
<g>
</g>
<g>
</g>
<g>
</g>
<g>
</g>
<g>
</g>
<g>
</g>
<g>
</g>
<g>
</g>
<g>
</g>
<g>
</g>
<g>
</g>
<g>
</g>
<g>
</g>
<g>
</g>
</symbol><symbol id="svg-scale" viewBox="0 0 512 512">
<path d="M512,224.039c0-0.013,0-0.026,0-0.039c0-0.051-0.007-0.1-0.008-0.151c-0.004-0.207-0.011-0.414-0.031-0.621  c-0.01-0.105-0.029-0.207-0.043-0.31c-0.021-0.154-0.04-0.307-0.07-0.461c-0.031-0.156-0.072-0.309-0.112-0.462  c-0.025-0.098-0.046-0.196-0.076-0.294c-0.061-0.202-0.133-0.399-0.209-0.594c-0.018-0.045-0.03-0.092-0.048-0.137l-0.019-0.047  c-0.008-0.02-0.016-0.04-0.025-0.06L439.404,44.971c-0.266-0.649-0.614-1.238-1.017-1.774C444.22,38.814,448,31.84,448,24  c0-13.233-10.766-24-24-24c-12.834,0-23.346,10.126-23.97,22.808L283.626,55.844c-7.191-12.289-22.047-18.688-36.361-14.628  c-8.223,2.333-15.045,7.729-19.209,15.194c-2.832,5.075-4.2,10.694-4.055,16.355l-116.623,33.097C103.008,99.889,95.951,96,88,96  c-13.234,0-24,10.767-24,24c0,7.537,3.496,14.271,8.948,18.674L0.637,316.869c-0.007,0.016-0.013,0.033-0.02,0.049l-0.03,0.074  c-0.022,0.054-0.036,0.109-0.057,0.164c-0.07,0.183-0.138,0.368-0.194,0.557c-0.031,0.103-0.053,0.207-0.08,0.31  c-0.037,0.147-0.077,0.294-0.106,0.444c-0.03,0.154-0.049,0.307-0.07,0.461c-0.014,0.103-0.032,0.204-0.042,0.308  c-0.019,0.199-0.026,0.398-0.03,0.597C0.007,319.889,0,319.944,0,320c0,0.019,0.001,0.037,0.001,0.056  c0,0.037,0.001,0.074,0.001,0.111C0.093,368.614,39.533,408,88,408c48.475,0,87.919-39.398,87.998-87.854  c0.001-0.036,0.001-0.071,0.001-0.107c0-0.013,0-0.026,0-0.039c0-0.051-0.007-0.1-0.008-0.151c-0.004-0.207-0.011-0.414-0.031-0.621  c-0.01-0.105-0.029-0.207-0.043-0.31c-0.021-0.154-0.04-0.307-0.07-0.461c-0.031-0.156-0.072-0.309-0.112-0.462  c-0.025-0.098-0.046-0.196-0.076-0.294c-0.061-0.202-0.133-0.399-0.209-0.594c-0.018-0.045-0.03-0.092-0.048-0.137l-0.019-0.047  c-0.008-0.02-0.016-0.04-0.025-0.06l-71.956-175.893c-0.266-0.649-0.614-1.238-1.017-1.774c5.535-4.159,9.221-10.652,9.582-18.005  l116.406-33.035c1.147,1.961,2.504,3.755,4.008,5.398C232.137,94.325,232,95.146,232,96v328c-13.234,0-24,10.767-24,24v16h-40  c-13.233,0-24,10.767-24,24v16c0,4.418,3.582,8,8,8h208c4.418,0,8-3.582,8-8v-16c0-13.233-10.767-24-24-24h-40v-16  c0-13.233-10.766-24-24-24V96c0-0.841-0.131-1.652-0.372-2.414c1.644-1.807,3.098-3.81,4.318-5.996  c2.832-5.075,4.2-10.694,4.055-16.356l116.622-33.097c1.239,1.694,2.694,3.22,4.326,4.537l-72.311,178.195  c-0.007,0.016-0.013,0.033-0.02,0.049l-0.03,0.074c-0.022,0.054-0.036,0.109-0.057,0.164c-0.07,0.183-0.138,0.368-0.194,0.557  c-0.031,0.103-0.053,0.207-0.08,0.31c-0.038,0.147-0.077,0.294-0.106,0.444c-0.03,0.154-0.049,0.307-0.07,0.461  c-0.014,0.103-0.032,0.204-0.042,0.308c-0.019,0.199-0.026,0.398-0.03,0.597c-0.001,0.056-0.008,0.11-0.008,0.167  c0,0.019,0.001,0.037,0.001,0.056c0,0.037,0.001,0.074,0.001,0.111C336.093,272.614,375.533,312,424,312  c48.475,0,87.919-39.398,87.998-87.854C511.999,224.11,511.999,224.075,512,224.039z M424,16c4.411,0,8,3.589,8,8s-3.589,8-8,8  s-8-3.589-8-8S419.589,16,424,16z M242.027,64.205c2.082-3.732,5.493-6.431,9.605-7.597c1.455-0.413,2.919-0.61,4.362-0.61  c6.971,0,13.399,4.599,15.396,11.629c0,0.002,0.001,0.003,0.001,0.005c0,0.001,0.001,0.002,0.001,0.003  c1.165,4.11,0.661,8.429-1.421,12.16c-2.082,3.732-5.493,6.431-9.605,7.597c-8.486,2.409-17.35-2.536-19.759-11.02  c0-0.001,0-0.002-0.001-0.003c0-0.001-0.001-0.001-0.001-0.002C239.441,72.255,239.945,67.937,242.027,64.205z M88,112  c4.411,0,8,3.589,8,8s-3.589,8-8,8s-8-3.589-8-8S83.589,112,88,112z M156.084,312H152c-4.418,0-8,3.582-8,8s3.582,8,8,8h7.559  c-3.993,35.949-34.562,64-71.559,64s-67.566-28.051-71.559-64H120c4.418,0,8-3.582,8-8s-3.582-8-8-8H19.88l68.126-167.883  c0.014,0.972,0.199,1.958,0.589,2.912L156.084,312z M288,448v23.99c0,0.003,0,0.006,0,0.01c0,4.418,3.582,8,8,8h48  c4.411,0,8,3.589,8,8v8H160v-8c0-4.411,3.589-8,8-8h96c4.418,0,8-3.582,8-8s-3.582-8-8-8h-40v-16c0-4.411,3.589-8,8-8h48  C284.411,440,288,443.589,288,448z M248,424V102.965c2.591,0.674,5.278,1.039,8.011,1.039c2.642,0,5.322-0.349,7.989-1.038V424H248z   M424,296c-36.997,0-67.566-28.051-71.559-64H456c4.418,0,8-3.582,8-8s-3.582-8-8-8H355.88l68.126-167.883  c0.014,0.972,0.199,1.958,0.589,2.912L492.084,216H488c-4.418,0-8,3.582-8,8s3.582,8,8,8h7.559C491.566,267.949,460.997,296,424,296  z" fill="#FFFFFF"/>
<g>
</g>
<g>
</g>
<g>
</g>
<g>
</g>
<g>
</g>
<g>
</g>
<g>
</g>
<g>
</g>
<g>
</g>
<g>
</g>
<g>
</g>
<g>
</g>
<g>
</g>
<g>
</g>
<g>
</g>
</symbol><symbol id="svg-security" viewBox="0 0 317.855 317.855">
<g>
	<path d="M158.929,317.855c-1.029,0-2.059-0.159-3.051-0.477c-33.344-10.681-61.732-31.168-84.377-60.891   c-17.828-23.401-32.103-52.526-42.426-86.566C11.661,112.506,11.461,61.358,11.461,59.209c0-5.15,3.912-9.459,9.039-9.954   c0.772-0.075,78.438-8.048,132.553-47.347c3.504-2.546,8.249-2.543,11.753,0.001C218.906,41.207,296.582,49.18,297.36,49.256   c5.123,0.5,9.034,4.807,9.034,9.953c0,2.149-0.2,53.297-17.613,110.713c-10.324,34.04-24.598,63.165-42.426,86.566   c-22.644,29.723-51.032,50.21-84.376,60.891C160.987,317.696,159.958,317.855,158.929,317.855z M31.748,67.982   c0.831,16.784,4.062,55.438,16.604,96.591c21.405,70.227,58.601,114.87,110.576,132.746   c52.096-17.916,89.335-62.711,110.713-133.202c12.457-41.074,15.653-79.434,16.472-96.134   c-22.404-3.269-80.438-14.332-127.186-45.785C112.175,53.648,54.153,64.713,31.748,67.982z" fill="#FFFFFF"/>
	<path d="M153.582,207.625c-2.372,0-4.68-0.844-6.499-2.4l-36.163-30.926c-4.197-3.589-4.69-9.901-1.101-14.099   c3.588-4.198,9.901-4.692,14.099-1.101l28.124,24.051l55.743-73.118c3.348-4.392,9.622-5.24,14.015-1.89   c4.393,3.348,5.238,9.623,1.89,14.015l-62.155,81.53c-1.667,2.187-4.16,3.591-6.895,3.882   C154.287,207.606,153.934,207.625,153.582,207.625z" fill="#FFFFFF"/>
</g>
<g>
</g>
<g>
</g>
<g>
</g>
<g>
</g>
<g>
</g>
<g>
</g>
<g>
</g>
<g>
</g>
<g>
</g>
<g>
</g>
<g>
</g>
<g>
</g>
<g>
</g>
<g>
</g>
<g>
</g>
</symbol></svg>