<svg xmlns="http://www.w3.org/2000/svg" viewBox="0 0 49.7 49.7"><path d="M24.8 0C11.1 0 0 11.1 0 24.8c0 13.7 11.1 24.8 24.8 24.8 13.7 0 24.8-11.1 24.8-24.8C49.7 11.1 38.5 0 24.8 0zm11.1 19.1v.7c0 7.6-5.7 16.3-16.3 16.3-3.2 0-6.2-.9-8.8-2.6.4.1.9.1 1.4.1 2.7 0 5.1-.9 7.1-2.4-2.5 0-4.6-1.7-5.3-4 .3.1.7.1 1.1.1.5 0 1-.1 1.5-.2-2.6-.5-4.6-2.8-4.6-5.6v-.1c.8.4 1.7.7 2.6.7-1.5-1-2.5-2.8-2.5-4.8 0-1 .3-2 .8-2.9 2.8 3.5 7 5.7 11.8 6-.1-.4-.1-.9-.1-1.3 0-3.2 2.6-5.7 5.7-5.7 1.6 0 3.1.7 4.2 1.8 1.3-.3 2.5-.7 3.6-1.4-.4 1.3-1.3 2.5-2.5 3.2 1.2-.1 2.3-.4 3.3-.9-.9 1.2-1.9 2.2-3 3z"/></svg>