<svg xmlns="http://www.w3.org/2000/svg" viewBox="0 0 500 500"><path d="M250 .038c138.1 0 250 111.9 250 250s-111.9 250-250 250-250-111.9-250-250 111.9-250 250-250z"/><path d="M261.3 159.738c-17 .1-27.9.1-43.2.1-12.8 0-20 5.2-20.2 8.3-.2 2.8 6.3 5.1 10.3 7.4 3.8 2.4 7.3 9.9 7.3 15v44.5c0 4.2-1 7.2-4.4 9.9-1.6 1.3-3.6 1.7-5.7 1.7-1.7 0-4-.3-5.6-2.4-16.8-21.9-16.9-24.6-40.5-68.6-1.1-2.1-2.3-4.4-4.6-6.1-2.3-1.7-5.8-2.8-11.4-2.8-19 0-30.7.3-43.2.3-11.8 0-10.7 7.2-9.1 10.6 14.2 29.5 28.6 57.8 45.1 86.4 19.4 33.5 37.1 53.7 66.9 68.2 6.9 3.4 19.4 6.8 33.8 6.8h30.6c3.9 0 10.5-3.1 10.5-7.3v-23c0-6.6 6.6-9 10.1-10.6 4.2-1.9 8.6 1.1 10.9 3.5 17.1 18.3 15.2 16.3 30.8 32.7 3.5 3.7 6.2 5.7 12.9 5.7 45 0 45 .1 55.8 0 3 0 7.3-4.4 8.3-6.2 1.3-2.3 4.2-10.4-.5-15.7-15.8-17.9-31.9-34.3-47.4-50.5-1.2-1.2-2.1-2.9-2.1-4.6 0-1.9 1-3.7 2.1-5.2 17.3-24 31.6-44.4 47.2-69.7 5.1-8.2 4.4-14 3.5-16.1-1.1-2.3-4.4-5.5-8.2-5.6-20.8-.1-29.8-.4-52-.4-6.6 0-12.5-.5-16.1 7.5-9.7 21.4-25.6 54-39.5 67.5-2.5 2.5-6 4.4-8.9 4.4-3 0-6.1-2-6.6-6.9-.3-23.3-.1-43.1-.2-65.9 0-7-3-8.8-5.2-10.3-3.1-2-7.8-2.6-11.5-2.6z" fill="#fff"/></svg>